<?xml version="1.0" encoding="utf-8"?>
<!-- Generator: Adobe Illustrator 21.0.2, SVG Export Plug-In . SVG Version: 6.00 Build 0)  -->
<svg version="1.1" xmlns="http://www.w3.org/2000/svg" xmlns:xlink="http://www.w3.org/1999/xlink" x="0px" y="0px"
	 viewBox="0 0 50 50" style="enable-background:new 0 0 50 50;" xml:space="preserve">
<style type="text/css">
	.st0{fill:#FFFFFF;}
	.st1{fill:#F7931E;}
	.st2{fill:#030104;}
	.st3{fill:#00417C;}
	.st4{fill:#D75528;}
	.st5{fill:#01323F;}
	.st6{fill:none;stroke:#FFFFFF;stroke-miterlimit:10;}
	.st7{opacity:0.5;}
</style>
<g id="Capa_1">
	<g>
		<g>
			<path class="st0" d="M18,40.2c-0.3,0.1-0.5,0.2-0.5,0.5c0,0.3,0.2,0.3,0.6,0.3c0.3-0.1,0.5-0.2,0.5-0.5
				C18.6,40.3,18.4,40.2,18,40.2z"/>
			<path class="st0" d="M16.2,40.5c-0.3,0-0.5,0.1-0.5,0.4c0,0.3,0.2,0.4,0.6,0.4c0.3,0,0.5-0.1,0.5-0.4
				C16.7,40.5,16.5,40.4,16.2,40.5z"/>
			<path class="st0" d="M13.6,40.4c-0.1,0.2,0.1,0.4,0.4,0.5c0.3,0.1,0.5,0.1,0.6-0.2c0.1-0.2-0.1-0.4-0.4-0.5
				C13.9,40,13.7,40.1,13.6,40.4z"/>
			<path class="st0" d="M47.2,2.8c-1.8-1.8-4-2.8-6.6-2.8H9.4C6.8,0,4.6,0.9,2.8,2.8C0.9,4.6,0,6.8,0,9.4v31.3
				c0,2.6,0.9,4.8,2.8,6.6c1.8,1.8,4,2.8,6.6,2.8h7.3c0.5,0,0.8,0,1.1,0c0.2,0,0.5-0.2,0.7-0.4c0.2-0.2,0.4-0.6,0.4-1.1
				c0-0.1,0-0.8,0-2.2c0-1.4,0-2.5,0-3.4L18,43c-0.5,0.1-1.1,0.1-1.8,0.1c-0.7,0-1.5-0.1-2.3-0.2c-0.8-0.1-1.5-0.5-2.2-1
				c-0.7-0.5-1.1-1.2-1.4-2L10,39.2c-0.2-0.5-0.6-1.1-1-1.7c-0.5-0.6-0.9-1-1.4-1.2l-0.2-0.2c-0.2-0.1-0.3-0.2-0.4-0.4
				c-0.1-0.2-0.2-0.3-0.3-0.5c-0.1-0.2,0-0.3,0.2-0.4c0.2-0.1,0.5-0.1,0.9-0.1l0.7,0.1c0.4,0.1,1,0.3,1.6,0.8c0.6,0.4,1.2,1,1.6,1.7
				c0.5,0.9,1.1,1.6,1.8,2c0.7,0.5,1.4,0.7,2.1,0.7c0.7,0,1.3-0.1,1.9-0.2c0.5-0.1,1-0.3,1.5-0.5c0.2-1.5,0.7-2.6,1.6-3.4
				c-1.2-0.1-2.3-0.3-3.3-0.6c-1-0.3-2-0.7-3.1-1.3c-1.1-0.6-1.9-1.3-2.6-2.2c-0.7-0.9-1.3-2-1.7-3.4c-0.4-1.4-0.7-3-0.7-4.9
				c0-2.6,0.9-4.9,2.6-6.7c-0.8-2-0.7-4.2,0.2-6.6c0.6-0.2,1.6,0,2.8,0.4c1.2,0.5,2.1,0.9,2.7,1.3c0.6,0.3,1,0.6,1.4,0.9
				c2-0.6,4.1-0.8,6.3-0.8c2.1,0,4.2,0.3,6.3,0.8l1.2-0.8c0.8-0.5,1.8-1,3-1.4c1.2-0.4,2-0.6,2.6-0.4c1,2.5,1.1,4.7,0.3,6.6
				c1.7,1.8,2.6,4.1,2.6,6.7c0,1.8-0.2,3.5-0.7,4.9c-0.4,1.4-1,2.6-1.7,3.4c-0.7,0.9-1.6,1.6-2.6,2.2c-1.1,0.6-2.1,1-3.1,1.3
				c-1,0.3-2.1,0.5-3.3,0.6c1.1,1,1.7,2.5,1.7,4.6v7.8c0,0.4,0.1,0.7,0.2,0.9c0.1,0.2,0.3,0.4,0.5,0.5c0.2,0.1,0.5,0.1,0.6,0.2
				c0.2,0,0.5,0,0.8,0h7.3c2.6,0,4.8-0.9,6.6-2.8c1.8-1.8,2.8-4,2.8-6.6V9.4C50,6.8,49.1,4.6,47.2,2.8z"/>
			<path class="st0" d="M9.9,36.4c-0.2,0.1-0.1,0.3,0.1,0.5c0.2,0.2,0.4,0.2,0.5,0.1c0.2-0.1,0.1-0.3-0.1-0.5
				C10.2,36.3,10,36.3,9.9,36.4z"/>
			<path class="st0" d="M8.8,35.6c-0.1,0.2,0,0.3,0.2,0.4c0.2,0.1,0.3,0.1,0.4-0.1c0.1-0.2,0-0.3-0.2-0.4C9,35.4,8.9,35.5,8.8,35.6z
				"/>
			<path class="st0" d="M10.9,37.7c-0.2,0.1-0.2,0.3,0,0.6c0.2,0.3,0.4,0.4,0.6,0.2c0.2-0.2,0.2-0.4,0-0.6
				C11.3,37.6,11.1,37.5,10.9,37.7z"/>
			<path class="st0" d="M12,39.1c-0.2,0.2-0.2,0.4,0.1,0.6c0.3,0.3,0.5,0.3,0.7,0.1c0.2-0.2,0.1-0.4-0.1-0.6
				C12.4,39,12.2,38.9,12,39.1z"/>
		</g>
	</g>
</g>
<g id="Capa_2">
</g>
</svg>
