<?xml version="1.0" encoding="utf-8"?>
<!-- Generator: Adobe Illustrator 21.0.2, SVG Export Plug-In . SVG Version: 6.00 Build 0)  -->
<svg version="1.1" xmlns="http://www.w3.org/2000/svg" xmlns:xlink="http://www.w3.org/1999/xlink" x="0px" y="0px"
	 viewBox="0 0 87 87" style="enable-background:new 0 0 87 87;" xml:space="preserve">
<style type="text/css">
	.st0{fill:#FFFFFF;}
	.st1{fill:#F7931E;}
	.st2{fill:#030104;}
	.st3{fill:#00417C;}
	.st4{fill:#D75528;}
	.st5{fill:#01323F;}
	.st6{fill:none;stroke:#FFFFFF;stroke-miterlimit:10;}
	.st7{opacity:0.5;}
</style>
<g id="Capa_1">
	<g>
		<path d="M35.6,29.4c-0.7,2.7-4.8,18.5-4.8,18.5h10.1c0,0-4.5-15.7-5.2-18.5H35.6z"/>
		<path d="M0,0v87h87V0H0z M45.9,67.2l-3.5-11.7h-13l-3.3,11.7H15.4l13.9-45.6h13.5L57,67.2H45.9z M71.3,67.2H61v-33h10.3L71.3,67.2
			L71.3,67.2z M66.1,30.1c-3.2,0-5.4-2.3-5.3-5.1c-0.1-3,2.1-5.2,5.4-5.2c3.3,0,5.4,2.2,5.5,5.2C71.6,27.8,69.5,30.1,66.1,30.1z"/>
	</g>
</g>
<g id="Capa_2">
</g>
</svg>
